{
  "title": "The.Loft.2015.WEBRiP.CAM.AUDiO.XViD-FANTA",
  "uid": 11714005,
  "size": 792312999,
  "categoryP": "video",
  "categoryS": "movies",
  "magnet": "?xt=urn:btih:d07f29b1f002279389a4369a061e919006b870cf&amp;dn=The.Loft.2015.WEBRiP.CAM.AUDiO.XViD-FANTA&amp;tr=udp%3A%2F%2Ftracker.openbittorrent.com%3A80&amp;tr=udp%3A%2F%2Fopen.demonii.com%3A1337&amp;tr=udp%3A%2F%2Ftracker.coppersurfer.tk%3A6969&amp;tr=udp%3A%2F%2Fexodus.desync.com%3A6969",
  "seeders": 72,
  "leechers": 22,
  "uploader": "xxxlavalxxx",
  "files": 8,
  "time": 1424457621,
  "description": "[img]http://extraimago.com/images/2015/02/20/mieLcXY.jpg[/img]\n &lt;a href=&quot;\nhttp://www.imdb.com/title/tt1850397/&quot; rel=&quot;nofollow&quot; target=&quot;_NEW&quot;&gt;\nhttp://www.imdb.com/title/tt1850397/&lt;/a&gt;\n\n\nFive married guys conspire to secretly share a penthouse loft in the city--a place where they can carry out hidden affairs and indulge in their deepest fantasies. But the fantasy becomes a nightmare when they discover the dead body of an unknown woman in the loft, and they realize one of the group must be involved.\n\nDirector: Erik Van Looy\nWriters: Bart De Pauw (screenplay), Wesley Strick (screenplay)\nStars: Karl Urban, James Marsden, Wentworth Miller\nGenres: Thriller\nCountry: Belgium | USA\nLanguage: English\n\n\nFormat                                   : AVI\nFormat/Info                              : Audio Video Interleave\nFormat profile                           : OpenDML\nFormat settings                          : rec\nFile size                                : 749 MiB\nDuration                                 : 1h 38mn\nOverall bit rate                         : 1 065 Kbps\nWriting application                      : AVI-Mux GUI 1.17.8.3, Feb 16 201019:42:50\n\nVideo\nID                                       : 0\nFormat                                   : MPEG-4 Visual\nCodec ID                                 : XVID\nCodec ID/Hint                            : XviD\nDuration                                 : 1h 38mn\nBit rate                                 : 822 Kbps\nWidth                                    : 640 pixels\nHeight                                   : 240 pixels\nDisplay aspect ratio                     : 2.667\nFrame rate                               : 25.000 fps\nColor space                              : YUV\nChroma subsampling                       : 4:2:0\nCompression mode                         : Lossy\nBits/(Pixel*Frame)                       : 0.214\nStream size                              : 578 MiB (77%)\n\nAudio\nID                                       : 1\nFormat                                   : AC-3\nFormat/Info                              : Audio Coding 3\nMode extension                           : CM (complete main)\nFormat settings, Endianness              : Big\nCodec ID                                 : 2000\nDuration                                 : 1h 38mn\nBit rate mode                            : Constant\nBit rate                                 : 192 Kbps\nChannel(s)                               : 2 channels\nChannel positions                        : Front: L R\nSampling rate                            : 44.1 KHz\nBit depth                                : 16 bits\nCompression mode                         : Lossy\nStream size                              : 135 MiB (18%)\nAlignment                                : Aligned on interleaves\nTitle                                    : The Loft 2015 CAM-New\n\n\n &lt;a href=&quot;\nhttp://extraimago.com/images/2015/02/20/The.Loft.2015.WEBRiP.CAM.AUDiO.XViD-FANTA.avi_20150220_192717.253.jpg&quot; rel=&quot;nofollow&quot; target=&quot;_NEW&quot;&gt;\nhttp://extraimago.com/images/2015/02/20/The.Loft.2015.WEBRiP.CAM.AUDiO.XViD-FANTA.avi_20150220_192717.253.jpg&lt;/a&gt; &lt;a href=&quot;\nhttp://extraimago.com/images/2015/02/20/The.Loft.2015.WEBRiP.CAM.AUDiO.XViD-FANTA.avi_20150220_192806.048.jpg&quot; rel=&quot;nofollow&quot; target=&quot;_NEW&quot;&gt;\nhttp://extraimago.com/images/2015/02/20/The.Loft.2015.WEBRiP.CAM.AUDiO.XViD-FANTA.avi_20150220_192806.048.jpg&lt;/a&gt; &lt;a href=&quot;\nhttp://extraimago.com/images/2015/02/20/The.Loft.2015.WEBRiP.CAM.AUDiO.XViD-FANTA.avi_20150220_192816.674.jpg&quot; rel=&quot;nofollow&quot; target=&quot;_NEW&quot;&gt;\nhttp://extraimago.com/images/2015/02/20/The.Loft.2015.WEBRiP.CAM.AUDiO.XViD-FANTA.avi_20150220_192816.674.jpg&lt;/a&gt; &lt;a href=&quot;\nhttp://extraimago.com/images/2015/02/20/The.Loft.2015.WEBRiP.CAM.AUDiO.XViD-FANTA.avi_20150220_192841.086.jpg&quot; rel=&quot;nofollow&quot; target=&quot;_NEW&quot;&gt;\nhttp://extraimago.com/images/2015/02/20/The.Loft.2015.WEBRiP.CAM.AUDiO.XViD-FANTA.avi_20150220_192841.086.jpg&lt;/a&gt; &lt;a href=&quot;\nhttp://extraimago.com/images/2015/02/20/The.Loft.2015.WEBRiP.CAM.AUDiO.XViD-FANTA.avi_20150220_192903.004.jpg&quot; rel=&quot;nofollow&quot; target=&quot;_NEW&quot;&gt;\nhttp://extraimago.com/images/2015/02/20/The.Loft.2015.WEBRiP.CAM.AUDiO.XViD-FANTA.avi_20150220_192903.004.jpg&lt;/a&gt; &lt;a href=&quot;\nhttp://extraimago.com/images/2015/02/20/The.Loft.2015.WEBRiP.CAM.AUDiO.XViD-FANTA.avi_20150220_192917.795.jpg&quot; rel=&quot;nofollow&quot; target=&quot;_NEW&quot;&gt;\nhttp://extraimago.com/images/2015/02/20/The.Loft.2015.WEBRiP.CAM.AUDiO.XViD-FANTA.avi_20150220_192917.795.jpg&lt;/a&gt; &lt;a href=&quot;\nhttp://extraimago.com/images/2015/02/20/The.Loft.2015.WEBRiP.CAM.AUDiO.XViD-FANTA.avi_20150220_193008.854.jpg&quot; rel=&quot;nofollow&quot; target=&quot;_NEW&quot;&gt;\nhttp://extraimago.com/images/2015/02/20/The.Loft.2015.WEBRiP.CAM.AUDiO.XViD-FANTA.avi_20150220_193008.854.jpg&lt;/a&gt; &lt;a href=&quot;\nhttp://extraimago.com/images/2015/02/20/The.Loft.2015.WEBRiP.CAM.AUDiO.XViD-FANTA.avi_20150220_193026.997.jpg&quot; rel=&quot;nofollow&quot; target=&quot;_NEW&quot;&gt;\nhttp://extraimago.com/images/2015/02/20/The.Loft.2015.WEBRiP.CAM.AUDiO.XViD-FANTA.avi_20150220_193026.997.jpg&lt;/a&gt; &lt;a href=&quot;\nhttp://extraimago.com/images/2015/02/20/The.Loft.2015.WEBRiP.CAM.AUDiO.XViD-FANTA.avi_20150220_193037.057.jpg&quot; rel=&quot;nofollow&quot; target=&quot;_NEW&quot;&gt;\nhttp://extraimago.com/images/2015/02/20/The.Loft.2015.WEBRiP.CAM.AUDiO.XViD-FANTA.avi_20150220_193037.057.jpg&lt;/a&gt;",
  "parsed": {
    "xt": "urn:btih:d07f29b1f002279389a4369a061e919006b870cf",
    "dn": "The.Loft.2015.WEBRiP.CAM.AUDiO.XViD-FANTA",
    "tr": [
      "udp://exodus.desync.com:6969",
      "udp://open.demonii.com:1337",
      "udp://tracker.coppersurfer.tk:6969",
      "udp://tracker.openbittorrent.com:80"
    ],
    "infoHash": "d07f29b1f002279389a4369a061e919006b870cf",
    "infoHashBuffer": {
      "type": "Buffer",
      "data": [
        208,
        127,
        41,
        177,
        240,
        2,
        39,
        147,
        137,
        164,
        54,
        154,
        6,
        30,
        145,
        144,
        6,
        184,
        112,
        207
      ]
    },
    "name": "The.Loft.2015.WEBRiP.CAM.AUDiO.XViD-FANTA",
    "announce": [
      "udp://exodus.desync.com:6969",
      "udp://open.demonii.com:1337",
      "udp://tracker.coppersurfer.tk:6969",
      "udp://tracker.openbittorrent.com:80"
    ],
    "urlList": []
  },
  "previous": 11,
  "peers": 18,
  "last_updated": "2016-12-27T13:44:19.579Z"
}